<?xml version="1.0" standalone="no"?>
<!DOCTYPE svg PUBLIC "-//W3C//DTD SVG 20010904//EN"
 "http://www.w3.org/TR/2001/REC-SVG-20010904/DTD/svg10.dtd">
<svg version="1.0" xmlns="http://www.w3.org/2000/svg"
 width="50.000000pt" height="50.000000pt" viewBox="0 0 50.000000 50.000000"
 preserveAspectRatio="xMidYMid meet">

<g transform="translate(0.000000,50.000000) scale(0.100000,-0.100000)"
fill="#000000" stroke="none">
<path d="M201 476 c-28 -16 -50 -52 -51 -83 0 -20 -5 -23 -40 -23 -22 0 -40
-3 -40 -7 0 -5 -9 -82 -20 -173 -11 -91 -20 -171 -20 -177 0 -10 51 -13 220
-13 121 0 220 3 220 8 0 4 -9 83 -20 177 -11 94 -20 173 -20 178 0 4 -13 7
-29 7 -28 0 -30 -3 -33 -42 -3 -38 -6 -43 -28 -43 -27 0 -40 29 -21 48 8 8 11
5 11 -11 0 -12 5 -22 10 -22 14 0 13 104 -2 135 -22 48 -88 68 -137 41z m104
-31 c14 -13 25 -36 25 -50 0 -24 -2 -25 -69 -25 l-70 0 -3 -42 c-3 -38 -6 -43
-28 -43 -27 0 -40 29 -21 48 8 8 11 5 11 -11 0 -12 5 -22 10 -22 6 0 10 27 10
60 0 51 4 65 25 85 15 16 36 25 55 25 19 0 40 -9 55 -25z"/>
</g>
</svg>
