<?xml version="1.0" standalone="no"?>
<!DOCTYPE svg PUBLIC "-//W3C//DTD SVG 20010904//EN"
 "http://www.w3.org/TR/2001/REC-SVG-20010904/DTD/svg10.dtd">
<svg version="1.0" xmlns="http://www.w3.org/2000/svg"
 width="64.000000pt" height="64.000000pt" viewBox="0 0 64.000000 64.000000"
 preserveAspectRatio="xMidYMid meet">

<g transform="translate(0.000000,64.000000) scale(0.100000,-0.100000)"
fill="#000000" stroke="none">
<path d="M249 617 c-143 -40 -232 -154 -233 -298 0 -55 6 -78 32 -132 18 -36
47 -78 65 -93 157 -133 385 -91 476 88 29 58 34 77 34 138 0 61 -5 80 -34 138
-65 128 -210 195 -340 159z m140 -143 c57 -47 50 -137 -13 -175 -17 -10 -42
-19 -56 -19 -37 0 -85 33 -99 69 -30 71 22 151 99 151 27 0 48 -8 69 -26z m51
-227 c32 -16 41 -74 14 -94 -25 -18 -243 -18 -268 0 -27 20 -18 78 14 94 33
17 207 17 240 0z"/>
</g>
</svg>
